<?xml version="1.0" encoding="utf-8"?>
<!-- Generator: Adobe Illustrator 28.0.0, SVG Export Plug-In . SVG Version: 6.00 Build 0)  -->
<svg version="1.1" id="Layer_1" xmlns="http://www.w3.org/2000/svg" xmlns:xlink="http://www.w3.org/1999/xlink" x="0px" y="0px"
	 viewBox="0 0 600 600" style="enable-background:new 0 0 600 600;" xml:space="preserve">
<style type="text/css">
	.st0{fill:#FFFFFF;}
	.st1{fill:#A68851;}
</style>
<g>
	<path class="st0" d="M526.41,373.6c-7.01-21.07-2.32-43.38-2.32-43.38c6.65-24.7,10.23-50.95,10.23-78.15
		c0-146.32-103.61-238.34-231.42-238.34S71.48,105.75,71.48,252.07c0,25.1,3.05,49.38,8.74,72.39c0,0,3.97,15.7-8.74,53.05
		C66.59,385.8,63,394.58,63,404.79c0,42.51,45.41,76.98,84.76,76.98c8.63,15.02,3.75,29.12,4.54,32.7l-2.3,0.16v20.12
		c0,4.61,2.29,7.4,6.86,10.75c4.57,3.35,17.6,4.77,17.6,4.77s1.78,6.88,5.91,7.61l14.67,4.02c4.14,0.74,7.52-2.43,7.52-7.04v-2.5
		h0.21v2.5c3.05,10.75,9.14,20.81,13.71,19.14c7.23-2.65,7.52-10.06,14.21-14.11v4.05c0,4.61,3.51,10.06,7.46,10.55l13.52,2.66
		c3.65,0.65,7.45-3.57,7.45-8.18v1.68c0,11.73,5.02,15.09,13.43,14.6l21.48,0.98c4.15,0.65,6.02-4.26,6.02-8.87v-0.61
		c0.06,4.54,1.93,9.29,6.01,8.65l21.48-0.98c8.41,0.49,13.43-2.86,13.43-14.6v-1.68c0,4.61,3.81,8.83,7.45,8.18l13.52-2.66
		c3.95-0.49,7.46-5.94,7.46-10.55v-4.05c6.69,4.05,6.99,11.46,14.21,14.11c4.57,1.68,10.66-8.38,13.71-19.14v-1.66h0.21v1.66
		c0,4.61,3.38,7.78,7.52,7.04l14.67-4.02c4.14-0.74,5.91-7.61,5.91-7.61s13.03-1.41,17.6-4.77c4.57-3.35,6.86-6.14,6.86-10.75
		v-20.12l-2.33,0.01c4.7-8.41-4.95-15.76,4.82-31.97c41.47,0,84.76-34.46,84.76-76.98C537.35,392.99,532.52,383.06,526.41,373.6z"/>
	<g>
		<path class="st1" d="M71.03,377.47c4.74-14.71,8.82-29.94,8.97-45.46c-0.04-2.51-0.1-5.17-0.65-7.61
			c-6.26-25.17-9.45-51.18-8.9-77.14c0.12-10.13,0.8-21.04,2.06-31.08c0.18-1.97,0.7-5.78,1.05-7.72
			c0.94-6.84,2.56-14.38,3.98-21.06c0,0,0.49-1.89,0.49-1.89l1.98-7.54c5.54-19.94,13.79-39.43,24.44-57.19
			c6.71-10.95,14.45-21.78,23.03-31.37c4.88-5.68,10.83-11.63,16.36-16.67c0,0,2.86-2.64,2.86-2.64l2.99-2.5
			c27.6-23.59,61.32-39.89,96.64-48.03c1.45-0.31,8.23-1.75,9.52-2.03c2.75-0.49,6.84-1.1,9.6-1.58c3.54-0.59,9.93-1.22,13.52-1.66
			c3.56-0.25,8.09-0.57,11.65-0.82c6.77-0.23,14.66-0.36,21.41-0.12c53.82,1.65,105.72,20.26,146.34,56
			c52.34,46.27,76.35,112.39,76.3,181.3c0.06,25.95-3.17,51.92-9.82,77c-0.74,2.5-1.2,4.99-1.5,7.57c-1.6,12.78-1.11,26,2.81,38.35
			c0,0-0.19,0.06-0.19,0.06c-4.72-14.77-5.37-31.06-1.94-46.18c13.78-54.96,12.72-114.45-6.9-167.85
			c-14.54-39.96-40.86-75.67-75.15-100.87c-38.46-28.43-86.22-43.33-133.87-44.3c-5.25-0.33-12.15,0.05-17.44,0.09
			c-2.77,0.14-6.89,0.48-9.67,0.63c-2.56,0.1-8.94,0.95-11.57,1.2c-2.16,0.19-5.5,0.8-7.67,1.13c-31.9,4.95-62.93,16.55-89.87,34.4
			c-18.29,12.08-34.76,27.15-48.48,44.24C108.92,114.2,97.26,134.76,89,156.4c-11.07,28.88-16.54,60-16.99,90.89
			c-0.6,25.83,2.25,51.75,8.29,76.87c0.56,2.64,0.58,5.24,0.58,7.85c-0.08,5.22-0.69,10.39-1.59,15.51
			c-1.82,10.23-4.69,20.23-8.08,30.02C71.22,377.53,71.03,377.47,71.03,377.47L71.03,377.47z"/>
	</g>
	<path class="st1" d="M336.85,417.27c-15.64-27.68-21.96-59.33-37.85-59.82v-0.15c-16.08,0-22.88,35.98-37.98,59.95
		c-11.96,18.98-2.16,38.58,8.83,39.07c18.32,0.82,23.22-16.51,28.87-17.38v0.1c5.93,0,10.53,18.25,29.15,17.42
		C338.86,455.97,347.89,436.8,336.85,417.27z"/>
	<g>
		<path class="st1" d="M447.42,227.28c14.83,4.68,30.12,10.55,40.86,22.34c3.58,4.15,6.84,9.6,6.4,15.34
			c-0.05,21.3,2.48,45.89,9.94,66.86c3.64,10.84,9.57,20.22,16.18,29.54c6.63,9.58,13.65,19.39,16.78,30.92
			c3.15,11.6,1.48,24.11-2.71,35.2c-8.57,22.08-27.41,38.65-48.78,47.85c-10.68,4.56-22.21,7.23-33.84,7.43c0,0,0.8-0.45,0.8-0.45
			c-1.38,2.38-2.55,4.89-3.26,7.5c-0.74,2.6-1,5.29-0.83,7.98c0.35,5.57,3.02,12.16-0.47,17.44c0,0-0.52,0.87-0.52,0.87
			s-1.12-0.11-1.12-0.11c-8.11-0.58-16.32,2.49-22.65,7.5c0,0-0.86,0.68-0.86,0.68s-1.13-0.34-1.13-0.34
			c-8.96-2.45-18.05,3.17-24.74,8.66c-9.13-2.98-19.47-0.78-27.24,4.73c0,0-0.72,0.51-0.72,0.51l-0.83-0.16
			c-10.08-2.1-20.65,2.54-27.59,9.78c-13.75-3.28-28.88-2.17-41.74,3.94c0,0-0.24-0.44-0.24-0.44c12.53-7.25,27.68-9.18,41.87-6.66
			c0,0-1.5,0.47-1.5,0.47c3.82-4.1,8.34-7.17,13.5-9.27c5.16-2.1,10.95-2.72,16.45-1.74c0,0-1.55,0.35-1.55,0.35
			c8.33-6.28,19.62-8.83,29.78-6.08c0,0-2.15,0.44-2.15,0.44c7.67-6.21,17.99-11.76,28.05-8.55c0,0-1.98,0.34-1.98,0.34
			c7.27-5.54,16.62-8.47,25.76-7.4c0,0-1.64,0.75-1.64,0.75c3.15-4.74,0.63-10.2,0.71-15.58c-0.12-4.42,0.98-8.82,2.94-12.75
			c0.69-1.48,1.52-2.87,2.36-4.26c5.87,0.12,11.75-0.47,17.49-1.71c11.16-2.37,21.79-7.13,31.19-13.58
			c18.47-12.75,32.68-33.05,34.23-55.74c1.08-11.27-2.48-21.89-8.43-31.38c-5.96-9.8-13.54-18.59-19.3-28.7
			c-2.95-5.16-5.36-10.59-7.29-16.15c-7.58-22.41-9.64-46.26-8.67-69.8c-0.18-12.9-17.46-24.05-29.5-29.89
			c-4.61-2.26-9.36-4.27-14.17-6.16C447.26,227.75,447.42,227.28,447.42,227.28L447.42,227.28z"/>
	</g>
	<g>
		<path class="st1" d="M299.22,541.59c-0.35-5.89-0.64-14.43-0.82-20.42c-0.43-6.86-0.43-13.65,1.28-20.39c0,0,0.3,0,0.3,0
			c1.56,6.78,1.4,13.57,0.82,20.42c0,0-0.56,10.2-0.56,10.2c-0.24,3.4-0.44,6.8-0.71,10.2
			C299.52,541.59,299.22,541.59,299.22,541.59L299.22,541.59z"/>
	</g>
	<g>
		<path class="st1" d="M338.44,539.19c-4.43-4.65-7.43-10.48-9.62-16.48c-2.35-6.03-3.31-12.65-1.7-19.01c0,0,0.3,0,0.3,0
			c0.49,1.57,0.76,3.12,1.08,4.65c1.05,4.53,1.61,9.13,2.62,13.66c1.57,5.99,3.94,11.89,7.54,16.98
			C338.66,538.99,338.44,539.19,338.44,539.19L338.44,539.19z"/>
	</g>
	<g>
		<path class="st1" d="M369,532.94c-2.75-3.45-5.07-7.22-6.9-11.25c-0.9-2.03-1.95-4.08-2.22-6.35c-0.25-2.26-0.18-4.63,0.74-6.79
			c0,0,0.3,0.02,0.3,0.02c1.47,4.24,2.39,8,3.42,12.27c1.31,4.08,2.95,8.09,4.91,11.93C369.25,532.77,369,532.94,369,532.94
			L369,532.94z"/>
	</g>
	<g>
		<path class="st1" d="M397.92,529.17c-2.59-3.29-4.86-6.81-6.79-10.54c-0.95-1.87-2.09-3.72-2.52-5.83
			c-0.45-2.12-0.62-4.33-0.06-6.47c0,0,0.3-0.03,0.3-0.03c2.11,3.76,3.31,7.33,4.48,11.37c1.42,3.84,3.03,7.64,4.84,11.34
			C398.17,529.01,397.92,529.17,397.92,529.17L397.92,529.17z"/>
	</g>
	<g>
		<path class="st1" d="M423.52,524.16c-2.35-3.03-4.25-6.39-5.67-9.98c-1.17-2.69-2.09-5.68-1.38-8.65
			c0.15-0.99,0.53-1.96,1.02-2.86c0,0,0.3,0.04,0.3,0.04c1.23,3.75,1.75,6.97,2.36,10.75c0.9,3.59,2.1,7.15,3.64,10.54
			C423.78,524,423.52,524.16,423.52,524.16L423.52,524.16z"/>
	</g>
	<g>
		<path class="st1" d="M152.01,514.72c-1.99-2.52-0.44-5.75-0.14-8.5c0.39-2.73,0.27-5.48-0.26-8.18
			c-0.97-5.36-3.35-10.68-5.7-15.58c0,0,1.5,0.96,1.5,0.96c-1.47-0.02-2.95,0.03-4.42-0.04c-40.08-1.78-78.45-34.86-81.04-75.76
			c-2.05-26.69,20.47-45.32,30.29-68c0.5-1.21,1.84-4.68,2.33-5.87c0.5-1.48,1.5-4.53,1.97-6.02c5.9-19.92,8.08-43.15,8.04-62.75
			c-0.43-5.29,2.15-10,5.17-14.07c6.36-7.87,15.11-13.03,24.14-17.09c0,0,1.78-0.81,1.78-0.81c0.6-0.25,1.21-0.47,1.82-0.71
			c2.01-0.66,5.25-2.15,7.31-2.72c2.47-0.81,4.95-1.57,7.42-2.33c0,0,0.16,0.47,0.16,0.47c-5.28,2.22-10.7,4.59-15.8,7.21
			c-8.2,4.43-16.63,9.66-22.47,16.94c-2.54,3.16-4.63,6.94-5.02,11c1.04,25.27-1.33,50.98-10.84,74.62c-1.58,4-3.69,8.2-5.79,11.91
			c-5.87,10.04-13.53,18.69-19.75,28.36c-3.05,4.77-5.68,9.81-7.36,15.19c-4.56,15-0.36,31.64,7.89,44.62
			c15.62,23.76,45.66,41.56,74.18,42.56c0,0,1.14,0.07,1.14,0.07c1.06,2.53,2.61,6.35,3.41,9.01c1.68,5.57,2.78,11.58,1.33,17.32
			c-0.33,1.42-0.84,2.79-1.21,4.1c-0.4,1.3-0.36,2.65,0.34,3.84C152.42,514.44,152.01,514.72,152.01,514.72L152.01,514.72z"/>
	</g>
	<g>
		<g>
			<path class="st1" d="M340.72,549.68c0.48,5.42,0.68,10.84,0.76,16.27c0.15,5.77,0.23,12.97-4.97,16.74
				c-4.37,2.95-9.76,1.7-14.66,2.47c-5.19,0.48-10.91,0.92-16.09,1.21c0,0,0.11-0.01,0.11-0.01c-0.84,0.12-1.74,0.1-2.61-0.2
				c-5.42-2.46-4.56-9.59-4.49-14.45c0.15-5.67,0.39-11.33,0.83-16.99c0,0,0.2,0,0.2,0c0.44,5.66,0.68,11.32,0.83,16.99
				c0.15,2.37-0.11,5.98,0.53,8.22c0.56,2.54,2.12,4.94,4.45,4.47c5.19-0.18,10.96-0.28,16.19-0.27c5.03-0.36,11.39,1.29,15.12-3
				c2.28-2.69,2.63-6.37,2.77-9.79c0.06-3.54,0.08-7.21,0.2-10.81c0.11-3.62,0.32-7.23,0.63-10.85
				C340.52,549.68,340.72,549.68,340.72,549.68L340.72,549.68z"/>
		</g>
		<g>
			<path class="st1" d="M397.08,535.57c0.61,6.2,0.88,12.46,0.75,18.68c-1.74,5.5-4.45,10.63-7.72,15.34
				c-2.97,4.03-5.61,5.86-10.22,2.67c-4.85-3.38-6.76-9.96-11.88-12.65c0.09-6.35,0.35-12.68,0.94-19.01c0,0,0.2,0,0.2,0
				c0.57,6.14,0.83,12.28,0.93,18.44c0,0-0.5-0.88-0.5-0.88c5.3,2.79,6.86,9.21,11.28,12.77c0.97,0.75,2.18,1.55,3.37,1.77
				c2.21,0.05,3.94-1.82,5.36-3.5c3.52-4.44,5.08-10.07,6.52-15.43c-0.16-3.29,0.11-9.38,0.35-13.59c0.12-1.54,0.22-3.07,0.4-4.61
				C396.88,535.57,397.08,535.57,397.08,535.57L397.08,535.57z"/>
		</g>
		<g>
			<path class="st1" d="M369.16,541.3c0.63,5.93,0.81,11.88,0.79,17.83c-0.03,2.98-0.05,6.28-1.59,8.94
				c-1.4,2.65-3.69,5.37-6.7,5.91c-3.63,0.83-7.22,1.83-10.85,2.65c-1.92,0.47-4.16,1.1-6.03,0.11c-3.94-1.79-5.59-6.32-5.17-10.34
				c0.13-5.59,0.38-11.16,0.91-16.73c0,0,0.2,0,0.2,0c0.36,3.72,0.57,7.44,0.74,11.16c0.4,4.88-0.97,11.38,4.16,14.13
				c1.59,0.87,3.19,0.19,4.87-0.02c3.67-0.61,7.37-1.05,11.04-1.65c2.87-0.35,5.01-3.02,5.99-5.6c1.2-2.78,0.66-5.63,0.65-8.56
				c-0.02-5.96,0.16-11.9,0.79-17.83C368.96,541.3,369.16,541.3,369.16,541.3L369.16,541.3z"/>
		</g>
		<g>
			<path class="st1" d="M423.94,525.51c0.62,3.32,1.08,6.66,1.44,10.01c0.36,3.37,0.69,6.73,0.81,10.12
				c-0.25,3.57-1.27,7.18-3.66,9.9c-0.77,0.86-2,1.63-3.07,1.81c-2.43,0.72-4.84,1.53-7.25,2.33c-2.4,0.82-4.83,1.57-7.26,2.28
				c-1.42,0.29-2.98,0.19-4.37-0.42c-3.48-1.44-4.77-5.46-4.42-8.92c0,0,0.04-1.89,0.04-1.89c0.15-5.05,0.38-10.1,0.88-15.14
				c0,0,0.2,0,0.2,0c0.49,5.04,0.73,10.09,0.88,15.14c0.01,3.29-0.14,7.34,3.26,8.98c0.81,0.49,2.4,0.56,3.04,0.46
				c2.46-0.63,4.92-1.22,7.41-1.74c2.49-0.54,4.98-1.07,7.45-1.7c2.23-0.38,3.68-2.47,4.38-4.5c1.84-5.47,0.08-10.93,0.14-16.59
				c-0.14-3.37-0.2-6.74-0.08-10.11C423.74,525.52,423.94,525.51,423.94,525.51L423.94,525.51z"/>
		</g>
		<g>
			<path class="st1" d="M449.84,513.78c1.14,6.45,0.81,12.96,0.22,19.43c0.39,5.86-3.64,10.83-8.63,13.46
				c-3.02,1.46-6.34,2.1-9.61,2.52c-2.17,0.27-4.35,0.39-6.54,0.32c0,0-0.02-0.2-0.02-0.2c4.19-1.16,8.38-2.13,12.38-3.45
				c1.92-0.65,3.87-1.33,5.51-2.6c2.48-1.87,5.14-3.8,5.98-6.91c0.74-3.14-0.11-6.44-0.23-9.62c-0.17-4.33,0.04-8.66,0.73-12.96
				C449.64,513.78,449.84,513.78,449.84,513.78L449.84,513.78z"/>
		</g>
		<g>
			<path class="st1" d="M258.87,550.51c0.65,7.18,0.74,14.49,0.83,21.65c0.01,5.02,1.49,11.26,7.18,12.38
				c1.72,0.43,3.53,0.47,5.31,0.34c1.8,0.06,3.6,0.04,5.4,0.07c5.23-0.02,10.99,0.09,16.19,0.27c2.33,0.47,3.89-1.92,4.45-4.47
				c0.64-2.23,0.4-5.86,0.53-8.22c0.15-5.67,0.39-11.33,0.83-16.99c0,0,0.2,0,0.2,0c0.44,5.66,0.68,11.32,0.83,16.99
				c-0.04,2.62,0.38,6.13-0.31,8.71c-0.65,3.34-3.28,6.62-6.69,5.95c-5.17-0.29-10.91-0.72-16.09-1.21
				c-1.79-0.14-3.57-0.32-5.36-0.42c-1.63,0.06-3.7-0.01-5.45-0.41c-8.47-1.69-9.21-11.32-8.83-18.38
				c0.08-5.43,0.28-10.85,0.76-16.27C258.67,550.51,258.87,550.51,258.87,550.51L258.87,550.51z"/>
		</g>
		<g>
			<path class="st1" d="M202.51,536.41c0.58,5.72,0.91,13.37,0.75,18.2c1.85,6.48,4.09,15.68,10.7,18.79
				c0.84,0.25,1.51,0.21,2.3-0.23c2.48-1.14,4.28-3.11,5.8-5.42c2.06-3.2,4.22-6.81,7.73-8.75c0,0-0.5,0.88-0.5,0.88
				c0.11-6.16,0.36-12.3,0.93-18.44c0,0,0.2,0,0.2,0c0.58,6.33,0.85,12.67,0.94,19.01c-5.13,2.69-7.03,9.28-11.88,12.65
				c-4.6,3.19-7.24,1.37-10.22-2.67c-3.27-4.72-5.97-9.85-7.72-15.34c-0.13-4.68,0.09-9.39,0.35-14.07c0.12-1.54,0.22-3.07,0.4-4.61
				H202.51L202.51,536.41z"/>
		</g>
		<g>
			<path class="st1" d="M230.43,542.13c0.63,5.93,0.81,11.88,0.79,17.83c-0.01,1.47-0.1,3.01-0.15,4.42
				c0.01,2.79,1.11,5.75,3.1,7.77c1,1.04,2.31,1.82,3.7,1.97c4.56,0.73,9.21,1.31,13.75,2.1c2.42,0.21,4.36-1.87,5.34-3.97
				c1.38-3.27,0.61-7.09,0.98-10.58c0.16-3.72,0.38-7.44,0.73-11.16c0,0,0.2,0,0.2,0c0.53,5.57,0.78,11.15,0.91,16.73
				c0.66,4.95-2.7,11.43-8.44,10.82c-4.6-0.91-9.05-2.2-13.62-3.25c-1.43-0.24-2.93-1.14-4-2.22c-2.17-2.19-3.73-5.02-4.09-8.14
				c-0.14-1.56-0.17-2.99-0.2-4.5c-0.02-5.96,0.16-11.9,0.79-17.83C230.23,542.13,230.43,542.13,230.43,542.13L230.43,542.13z"/>
		</g>
		<g>
			<path class="st1" d="M175.64,526.36c0.18,6.73-0.1,13.47-0.8,20.17c-0.11,1.86,0.14,4.5,0.85,6.53c0.69,2.03,2.15,4.12,4.38,4.5
				c2.47,0.63,4.96,1.16,7.45,1.7c2.49,0.52,4.95,1.11,7.41,1.74c0.62,0.08,2.23,0.04,3.04-0.46c3.4-1.64,3.25-5.69,3.26-8.98
				c0.15-5.05,0.38-10.1,0.88-15.14c0,0,0.2,0,0.2,0c0.49,5.04,0.73,10.09,0.88,15.14c0,0,0.04,1.89,0.04,1.89
				c0.36,3.46-0.93,7.49-4.42,8.92c-1.38,0.61-2.94,0.71-4.37,0.42c-2.43-0.71-4.86-1.46-7.26-2.28c-2.36-0.78-4.94-1.65-7.22-2.32
				c-2.46-0.49-4.05-2.68-5.05-4.8c-2.69-5.3-1.4-11.37-0.9-17.03c0.36-3.35,0.82-6.69,1.44-10.01
				C175.44,526.34,175.64,526.36,175.64,526.36L175.64,526.36z"/>
		</g>
		<g>
			<path class="st1" d="M149.75,514.62c0.69,4.3,0.9,8.62,0.73,12.96c-0.12,3.18-0.97,6.48-0.23,9.62c0.84,3.11,3.5,5.05,5.98,6.91
				c1.64,1.27,3.6,1.95,5.51,2.6c3.99,1.32,8.18,2.29,12.38,3.45l-0.02,0.2c-2.19,0.07-4.37-0.05-6.54-0.32
				c-3.27-0.42-6.59-1.06-9.61-2.52c-4.98-2.63-9.02-7.6-8.63-13.46c-0.28-4.31-0.82-8.62-0.45-12.96c0.12-2.16,0.29-4.32,0.67-6.48
				H149.75L149.75,514.62z"/>
		</g>
	</g>
	<path class="st1" d="M484.44,267.25l-107.88-8.02c-13.22-0.88-26.05,2.47-40.53,12.33c-6.22-1.16-19.28-4.54-34.05-4.54
		c-14.1,0-26.06,2.81-32.58,3.99c-10.64-7.98-27.89-12.87-41.13-11.99l-107.88,8.02c-21.89,1.45-37.92,20.49-35.63,42.31l4.94,46.98
		c2.3,21.82,22.05,38.06,43.9,36.09l68.13-6.14c21.85-1.97,45.13-20.7,51.74-41.62c0,0,17.31-42.61,17.52-45.27
		c5.04-11.09,18.31-20.4,30.97-20.4c13.21,0,27.26,9.31,31.85,20.8c0.22,2.6,17.51,45.08,17.51,45.08
		c6.61,20.92,29.89,39.65,51.74,41.62l68.13,6.14c21.85,1.97,41.61-14.27,43.9-36.09l4.94-46.98
		C522.36,287.74,506.33,268.7,484.44,267.25z"/>
	<path class="st0" d="M369.3,345.1c6.1,15.09,25.42,27.84,42.92,28.34l54.59,1.57c17.51,0.5,32.62-12.29,33.58-28.42l2.07-34.73
		c0.96-16.13-12.58-29.43-30.1-29.55L386,281.07c-10.58-0.07-31.91,4.38-31.84,10.81C352.06,317.05,369.3,345.1,369.3,345.1z"/>
	<path class="st0" d="M235.17,342.94c-5.56,15.3-24.41,28.73-41.89,29.85l-54.5,3.51c-17.48,1.12-33.03-11.12-34.57-27.21
		l-3.31-34.64c-1.54-16.09,11.53-29.86,29.03-30.6l86.26-4.3c10.57-0.45,32.05,3.24,32.2,9.67
		C251.4,314.3,235.17,342.94,235.17,342.94z"/>
	<g>
		<path class="st1" d="M151.32,513.47c3.97-2.76,9.33-2.66,13.53-0.55c2.99,1.12,4.84,4.15,7.86,5.17c1.34,0.53,2.89,0.7,4.16,1.39
			c0,0-1.98-0.34-1.98-0.34c7.49-2.54,15.55,0.33,21.99,4.21c2.13,1.29,4.08,2.67,6.06,4.34l-2.15-0.44
			c2.64-0.76,5.21-1.02,7.92-1.08c7.82-0.16,15.66,2.49,21.87,7.16c0,0-1.55-0.35-1.55-0.35c11.1-2.07,22.41,2.91,29.95,11.01
			c0,0-1.5-0.47-1.5-0.47c9-1.65,18.09-1.34,26.95,0.71c5.22,1.26,10.3,3.24,14.92,5.95c0,0-0.24,0.44-0.24,0.44
			c-3.19-1.52-6.51-2.72-9.9-3.62c-10.04-2.61-20.93-2.8-31.01-0.52c0,0-0.84,0.2-0.84,0.2c-1.88-1.97-4.1-3.79-6.48-5.3
			c-6.2-4-13.82-5.99-21.11-4.48c0,0-0.83,0.16-0.83,0.16s-0.72-0.51-0.72-0.51c-7.77-5.52-18.11-7.71-27.24-4.73
			c-7.02-5.78-16.76-11.61-26.05-8.26c0,0-0.68-0.73-0.68-0.73c-1.03-1.14-1.76-2.83-3.11-3.74c-2.2-1.6-5.19-1.14-7.7-1.71
			c-4.26-0.49-7.96-1.63-12.06-3.43C151.4,513.97,151.32,513.47,151.32,513.47L151.32,513.47z"/>
	</g>
	<g>
		<path class="st1" d="M261.4,539.18c3.6-5.09,5.97-10.99,7.54-16.98c1.01-4.53,1.57-9.13,2.62-13.66c0.32-1.53,0.59-3.08,1.08-4.65
			c0,0,0.3,0,0.3,0c2.46,9.6-1.15,19.38-5.68,27.78c-1.62,2.76-3.4,5.43-5.64,7.72C261.63,539.39,261.4,539.18,261.4,539.18
			L261.4,539.18z"/>
	</g>
	<g>
		<path class="st1" d="M230.81,532.97c1.95-3.84,3.6-7.85,4.91-11.93c1.03-4.27,1.96-8.03,3.42-12.27c0,0,0.3-0.02,0.3-0.02
			c1.82,4.36,0.58,9.15-1.48,13.14c-1.83,4.03-4.15,7.8-6.9,11.25C231.06,533.14,230.81,532.97,230.81,532.97L230.81,532.97z"/>
	</g>
	<g>
		<path class="st1" d="M200.57,529.21c1.8-3.7,3.42-7.5,4.84-11.34c1.18-4.04,2.37-7.61,4.48-11.37c0,0,0.3,0.03,0.3,0.03
			c1.12,4.29-0.42,8.63-2.58,12.3c-1.92,3.73-4.19,7.25-6.79,10.54C200.82,529.37,200.57,529.21,200.57,529.21L200.57,529.21z"/>
	</g>
	<g>
		<path class="st1" d="M174.96,521.54c1.54-3.39,2.74-6.95,3.64-10.54c0.61-3.78,1.12-7,2.36-10.75c0,0,0.3-0.04,0.3-0.04
			c2.04,3.6,1.3,7.94-0.36,11.5c-1.42,3.58-3.32,6.95-5.67,9.98C175.21,521.7,174.96,521.54,174.96,521.54L174.96,521.54z"/>
	</g>
</g>
</svg>
