<?xml version="1.0" encoding="utf-8"?>
<!-- Generator: Adobe Illustrator 27.9.2, SVG Export Plug-In . SVG Version: 6.00 Build 0)  -->
<svg version="1.1" id="Layer_1" xmlns="http://www.w3.org/2000/svg" xmlns:xlink="http://www.w3.org/1999/xlink" x="0px" y="0px"
	 viewBox="0 0 600 600" style="enable-background:new 0 0 600 600;" xml:space="preserve">
<style type="text/css">
	.st0{fill:#FFFFFF;}
	.st1{fill:#CC6666;}
</style>
<g>
	<circle class="st0" cx="300" cy="300" r="300"/>
</g>
<g>
	<path class="st1" d="M465,353.7c-5.1-15.4-1.7-31.7-1.7-31.7c4.9-18.1,7.5-37.3,7.5-57.1c0-107-75.8-174.3-169.2-174.3
		s-169.2,67.3-169.2,174.3c0,18.4,2.3,36.1,6.4,53c0,0,2.9,11.5-6.4,38.8c-3.6,6.1-6.2,12.5-6.2,20c0,31.1,33.2,56.3,62,56.3
		c6.3,11,2.8,21.3,3.3,23.9l-1.7,0.1v14.7c0,3.4,1.7,5.4,5,7.9s12.9,3.5,12.9,3.5s1.3,5,4.3,5.6l10.8,2.9c3,0.5,5.5-1.8,5.5-5.1
		v-1.8h0.1v1.8c2.3,7.9,6.7,15.2,10,14c5.3-2,5.5-7.4,10.4-10.3v2.9c0,3.4,2.6,7.4,5.5,7.7l9.9,2c2.6,0.5,5.5-2.6,5.5-6v1.2
		c0,8.6,3.7,11,9.8,10.7l15.7,0.7c3,0.5,4.4-3.1,4.4-6.5v-0.4c0.1,3.3,1.4,6.8,4.4,6.4l15.7-0.7c6.1,0.4,9.8-2.1,9.8-10.7V496
		c0,3.4,2.8,6.4,5.5,6l9.9-2c2.9-0.4,5.5-4.3,5.5-7.7v-2.9c4.9,2.9,5.1,8.4,10.4,10.3c3.4,1.2,7.8-6.1,10-14v-1.2h0.1v1.2
		c0,3.4,2.5,5.7,5.5,5.1l10.8-2.9c3-0.5,4.3-5.6,4.3-5.6s9.5-1,12.9-3.5c3.4-2.4,5-4.5,5-7.9v-14.7h-1.7c3.4-6.1-3.7-11.6,3.5-23.4
		c30.4,0,62-25.2,62-56.3C473.1,367.9,469.5,360.7,465,353.7z"/>
	<g>
		<path class="st0" d="M132.1,356.4c3.4-10.8,6.4-21.9,6.6-33.3c0-1.8-0.1-3.8-0.5-5.6c-4.6-18.4-6.9-37.4-6.5-56.4
			c0.1-7.4,0.6-15.4,1.5-22.7c0.1-1.5,0.5-4.2,0.8-5.6c0.7-5,1.9-10.5,2.9-15.4l0.4-1.4l1.5-5.5c4-14.6,10.1-28.8,17.8-41.8
			c4.9-8,10.5-15.9,16.8-23c3.6-4.2,7.9-8.5,12-12.2l2.1-1.9l2.2-1.8c20.2-17.3,44.8-29.2,70.7-35.1c1-0.2,6-1.3,6.9-1.5
			c2-0.4,5-0.8,7-1.2c2.6-0.4,7.2-0.9,9.9-1.2c2.6-0.1,5.9-0.4,8.5-0.6c5-0.1,10.8-0.3,15.7-0.1c39.3,1.2,77.3,14.8,107,41
			c38.3,33.9,55.9,82.2,55.8,132.6c0.1,19-2.3,38-7.2,56.3c-0.5,1.8-0.9,3.7-1.1,5.6c-1.2,9.4-0.8,19,2,28.1l-0.1,0.1
			c-3.4-10.8-3.9-22.7-1.4-33.8c10.1-40.2,9.3-83.7-5-122.8c-10.6-29.3-29.9-55.4-55-73.8c-28.1-20.8-63.1-31.7-97.9-32.4
			c-3.8-0.2-8.8,0-12.7,0.1c-2,0.1-5,0.4-7.1,0.4c-1.9,0.1-6.5,0.7-8.5,0.9c-1.6,0.1-4,0.6-5.6,0.8c-23.3,3.7-46,12.1-65.8,25.2
			c-13.4,8.8-25.5,19.8-35.5,32.3c-10.6,13.2-19.1,28.2-25.2,44.1c-8.1,21.1-12.1,43.9-12.4,66.5c-0.4,18.9,1.6,37.8,6.1,56.2
			c0.4,1.9,0.4,3.8,0.4,5.8c-0.1,3.8-0.5,7.6-1.2,11.3C136.8,342,134.6,349.3,132.1,356.4C132.2,356.5,132.1,356.4,132.1,356.4
			L132.1,356.4z"/>
	</g>
	<path class="st0" d="M326.5,385.5c-11.4-20.3-16.1-43.4-27.7-43.7v-0.1c-11.8,0-16.7,26.3-27.8,43.9c-8.8,13.9-1.6,28.2,6.4,28.6
		c13.4,0.6,17-12.1,21.1-12.7v0.1c4.3,0,7.7,13.3,21.3,12.7C328,413.8,334.6,399.9,326.5,385.5z"/>
	<g>
		<path class="st0" d="M407.4,246.6c10.8,3.4,22,7.8,29.9,16.3c2.6,3,5,7,4.7,11.2c0,15.6,1.8,33.6,7.2,48.9
			c2.6,7.9,7,14.8,11.8,21.6c4.8,7,10,14.2,12.3,22.6c2.3,8.5,1.1,17.6-2,25.7c-6.3,16.2-20,28.2-35.7,35
			c-7.8,3.4-16.2,5.3-24.7,5.4l0.6-0.4c-1,1.8-1.8,3.6-2.4,5.5c-0.5,1.9-0.7,3.9-0.6,5.9c0.3,4.1,2.2,8.9-0.4,12.7l-0.4,0.7
			l-0.8-0.1c-5.9-0.4-11.9,1.8-16.5,5.5l-0.7,0.5l-0.8-0.2c-6.6-1.8-13.2,2.3-18.1,6.4c-6.7-2.2-14.3-0.6-19.9,3.4l-0.5,0.4
			l-0.6-0.1c-7.4-1.5-15.1,1.8-20.2,7.2c-10.1-2.4-21.1-1.6-30.5,2.9l-0.1-0.3c9.1-5.3,20.3-6.7,30.6-4.9l-1.1,0.4
			c2.8-3,6.1-5.3,9.9-6.8c3.8-1.5,8-2,12.1-1.2l-1.1,0.2c6.1-4.6,14.3-6.4,21.8-4.5l-1.5,0.3c5.6-4.5,13.2-8.6,20.5-6.2l-1.5,0.2
			c5.3-4,12.1-6.2,18.9-5.4l-1.2,0.6c2.3-3.4,0.4-7.5,0.5-11.4c-0.1-3.2,0.7-6.4,2.1-9.4c0.5-1.1,1.1-2.1,1.8-3.1
			c4.3,0.1,8.6-0.4,12.8-1.2c8.2-1.8,15.9-5.2,22.8-9.9c13.5-9.4,23.9-24.1,25-40.7c0.8-8.3-1.8-16-6.1-23
			c-4.4-7.2-9.9-13.6-14.1-21c-2.2-3.8-3.9-7.8-5.3-11.8c-5.6-16.4-7-33.9-6.4-51.1c-0.1-9.4-12.8-17.6-21.6-21.9
			c-3.4-1.7-6.9-3.1-10.4-4.5C407.2,246.9,407.4,246.6,407.4,246.6L407.4,246.6z"/>
	</g>
	<g>
		<path class="st0" d="M299,476.4c-0.3-4.3-0.4-10.5-0.6-14.9c-0.3-5-0.3-10,1-14.9h0.2c1.2,5,1,9.9,0.6,14.9l-0.4,7.5
			c-0.1,2.5-0.3,5-0.5,7.5C299.2,476.4,299,476.4,299,476.4L299,476.4z"/>
	</g>
	<g>
		<path class="st0" d="M327.7,474.7c-3.2-3.4-5.4-7.7-7-12.1c-1.8-4.4-2.4-9.3-1.2-13.9h0.2c0.4,1.2,0.6,2.3,0.8,3.4
			c0.7,3.3,1.2,6.7,1.9,10c1.2,4.4,2.9,8.7,5.5,12.4C327.8,474.5,327.7,474.7,327.7,474.7L327.7,474.7z"/>
	</g>
	<g>
		<path class="st0" d="M350,470.2c-2-2.6-3.7-5.3-5-8.2c-0.7-1.5-1.5-3-1.6-4.6c-0.1-1.7-0.1-3.4,0.5-5h0.2c1.1,3.1,1.8,5.9,2.5,9
			c1,3,2.2,5.9,3.6,8.7L350,470.2L350,470.2z"/>
	</g>
	<g>
		<path class="st0" d="M371.2,467.4c-1.9-2.4-3.6-5-5-7.7c-0.7-1.4-1.5-2.7-1.8-4.2c-0.4-1.5-0.4-3.1-0.1-4.8h0.2
			c1.5,2.8,2.4,5.3,3.3,8.3c1,2.8,2.2,5.6,3.5,8.3L371.2,467.4L371.2,467.4z"/>
	</g>
	<g>
		<path class="st0" d="M389.9,463.7c-1.8-2.2-3.1-4.7-4.2-7.3c-0.9-2-1.5-4.2-1-6.3c0.1-0.7,0.4-1.5,0.7-2.1h0.2
			c0.9,2.8,1.3,5.1,1.8,7.9c0.7,2.6,1.5,5.3,2.6,7.7C390.1,463.6,389.9,463.7,389.9,463.7L389.9,463.7z"/>
	</g>
	<g>
		<path class="st0" d="M191.3,456.8c-1.5-1.8-0.3-4.2-0.1-6.2c0.3-2,0.2-4-0.2-6c-0.7-3.9-2.5-7.8-4.2-11.4l1.1,0.7
			c-1.1,0-2.1,0-3.2,0c-29.3-1.3-57.3-25.5-59.2-55.4c-1.5-19.5,15-33.1,22.2-49.7c0.4-0.9,1.3-3.4,1.7-4.3c0.4-1.1,1.1-3.3,1.5-4.4
			c4.3-14.6,5.9-31.5,5.9-45.9c-0.3-3.9,1.6-7.3,3.8-10.3c4.7-5.8,11-9.5,17.6-12.5l1.3-0.6c0.4-0.1,0.9-0.4,1.3-0.5
			c1.5-0.5,3.8-1.5,5.3-2c1.8-0.6,3.6-1.2,5.4-1.7l0.1,0.4c-3.9,1.6-7.8,3.4-11.6,5.3c-6,3.2-12.1,7.1-16.5,12.4
			c-1.8,2.3-3.4,5-3.7,8c0.7,18.5-1,37.3-7.9,54.6c-1.2,2.9-2.7,6-4.2,8.7c-4.3,7.3-9.9,13.7-14.5,20.8c-2.3,3.5-4.2,7.2-5.4,11.1
			c-3.4,11-0.3,23.1,5.8,32.6c11.4,17.4,33.4,30.4,54.3,31.2l0.8,0.1c0.8,1.8,1.9,4.7,2.5,6.6c1.2,4.1,2,8.5,1,12.7
			c-0.2,1-0.6,2-0.9,3c-0.3,1-0.3,2,0.2,2.8C191.6,456.6,191.3,456.8,191.3,456.8L191.3,456.8z"/>
	</g>
	<g>
		<g>
			<path class="st0" d="M329.4,482.4c0.4,3.9,0.5,7.9,0.6,11.9c0.1,4.2,0.1,9.5-3.7,12.2c-3.2,2.2-7.2,1.2-10.8,1.8
				c-3.8,0.4-8,0.7-11.8,0.9h0.1c-0.6,0.1-1.2,0.1-1.9-0.1c-3.9-1.8-3.4-7-3.3-10.6c0.1-4.2,0.3-8.3,0.6-12.4h0.1
				c0.3,4.2,0.5,8.3,0.6,12.4c0.1,1.8-0.1,4.4,0.4,6c0.4,1.8,1.5,3.6,3.3,3.3c3.8-0.1,8-0.2,11.8-0.2c3.7-0.3,8.3,1,11-2.2
				c1.7-2,1.9-4.7,2-7.2c0.1-2.6,0.1-5.3,0.1-7.9c0.1-2.6,0.2-5.3,0.4-7.9C329.2,482.4,329.4,482.4,329.4,482.4L329.4,482.4z"/>
		</g>
		<g>
			<path class="st0" d="M370.6,472.1c0.4,4.5,0.7,9.1,0.6,13.7c-1.2,4-3.3,7.8-5.6,11.2c-2.2,2.9-4.1,4.3-7.5,2
				c-3.6-2.5-5-7.3-8.7-9.3c0.1-4.6,0.3-9.3,0.7-13.9h0.1c0.4,4.5,0.6,9,0.7,13.5l-0.4-0.7c3.9,2,5,6.7,8.3,9.4
				c0.7,0.6,1.6,1.1,2.5,1.3c1.6,0,2.9-1.3,3.9-2.6c2.6-3.2,3.7-7.4,4.8-11.3c-0.1-2.4,0.1-6.9,0.3-9.9
				C370.3,474.3,370.4,473.1,370.6,472.1C370.5,472.1,370.6,472.1,370.6,472.1L370.6,472.1z"/>
		</g>
		<g>
			<path class="st0" d="M350.1,476.3c0.4,4.3,0.6,8.7,0.6,13c0,2.2,0,4.6-1.2,6.5c-1,2-2.7,3.9-4.9,4.3c-2.6,0.6-5.3,1.3-8,2
				c-1.4,0.4-3.1,0.8-4.4,0.1c-2.9-1.3-4.1-4.6-3.8-7.5c0.1-4.1,0.3-8.2,0.7-12.2h0.1c0.3,2.7,0.4,5.4,0.5,8.2
				c0.3,3.6-0.7,8.3,3.1,10.3c1.2,0.7,2.3,0.1,3.6,0c2.7-0.4,5.4-0.7,8-1.2c2.1-0.2,3.7-2.2,4.4-4.1c0.9-2,0.5-4.1,0.4-6.3
				c0-4.4,0.1-8.7,0.6-13C350,476.3,350.1,476.3,350.1,476.3L350.1,476.3z"/>
		</g>
		<g>
			<path class="st0" d="M390.2,464.7c0.4,2.4,0.8,4.9,1,7.3c0.3,2.5,0.5,4.9,0.6,7.4c-0.1,2.6-1,5.3-2.7,7.2
				c-0.6,0.7-1.5,1.2-2.3,1.3c-1.8,0.5-3.5,1.1-5.3,1.7c-1.8,0.6-3.5,1.2-5.3,1.7c-1,0.2-2.2,0.1-3.2-0.3c-2.6-1-3.5-4-3.2-6.5v-1.4
				c0.1-3.7,0.3-7.4,0.7-11h0.1c0.4,3.7,0.5,7.4,0.7,11c0,2.4-0.1,5.3,2.4,6.6c0.6,0.4,1.8,0.4,2.2,0.4c1.8-0.4,3.6-0.9,5.4-1.2
				c1.8-0.4,3.7-0.8,5.5-1.2c1.6-0.3,2.7-1.8,3.2-3.3c1.3-4,0.1-8,0.1-12.1c-0.1-2.5-0.1-4.9-0.1-7.4
				C390.1,464.7,390.2,464.7,390.2,464.7L390.2,464.7z"/>
		</g>
		<g>
			<path class="st0" d="M409.1,456.1c0.8,4.8,0.6,9.5,0.1,14.2c0.3,4.3-2.6,7.9-6.3,9.9c-2.2,1.1-4.6,1.5-7,1.8
				c-1.6,0.2-3.2,0.3-4.8,0.2v-0.1c3.1-0.9,6.1-1.5,9.1-2.6c1.4-0.5,2.9-1,4-1.9c1.8-1.4,3.7-2.8,4.4-5c0.5-2.3-0.1-4.7-0.1-7
				C408.4,462.4,408.6,459.2,409.1,456.1C409,456.1,409.1,456.1,409.1,456.1L409.1,456.1z"/>
		</g>
		<g>
			<path class="st0" d="M269.5,483c0.4,5.3,0.5,10.6,0.6,15.9c0,3.7,1.1,8.3,5.3,9.1c1.2,0.3,2.6,0.4,3.9,0.2c1.3,0.1,2.6,0,3.9,0.1
				c3.8,0,8,0.1,11.8,0.2c1.7,0.4,2.9-1.4,3.3-3.3c0.4-1.6,0.3-4.3,0.4-6c0.1-4.2,0.3-8.3,0.6-12.4h0.1c0.3,4.2,0.5,8.3,0.6,12.4
				c0,1.9,0.3,4.5-0.2,6.4c-0.4,2.4-2.4,4.8-4.9,4.4c-3.8-0.2-8-0.5-11.8-0.9c-1.3-0.1-2.6-0.2-3.9-0.3c-1.2,0.1-2.7,0-4-0.3
				c-6.2-1.2-6.7-8.3-6.4-13.5c0.1-3.9,0.2-7.9,0.6-11.9C269.4,483,269.5,483,269.5,483L269.5,483z"/>
		</g>
		<g>
			<path class="st0" d="M228.3,472.7c0.4,4.2,0.7,9.8,0.6,13.3c1.4,4.8,3,11.5,7.8,13.8c0.6,0.1,1.1,0.1,1.7-0.1
				c1.8-0.8,3.1-2.3,4.2-3.9c1.5-2.3,3.1-5,5.6-6.4l-0.4,0.7c0.1-4.5,0.3-9,0.7-13.5h0.1c0.4,4.6,0.7,9.3,0.7,13.9
				c-3.7,2-5.1,6.8-8.7,9.3c-3.4,2.3-5.3,1-7.5-2c-2.4-3.4-4.4-7.2-5.6-11.2c-0.1-3.4,0.1-6.9,0.3-10.3c0.1-1.1,0.1-2.3,0.3-3.4
				L228.3,472.7L228.3,472.7z"/>
		</g>
		<g>
			<path class="st0" d="M248.7,476.9c0.4,4.3,0.6,8.7,0.6,13c0,1.1-0.1,2.2-0.1,3.2c0,2,0.8,4.2,2.3,5.7c0.7,0.7,1.7,1.3,2.7,1.5
				c3.4,0.5,6.7,1,10.1,1.5c1.8,0.1,3.2-1.4,3.9-2.9c1-2.4,0.4-5.2,0.7-7.8c0.1-2.7,0.3-5.4,0.5-8.2h0.1c0.4,4.1,0.6,8.2,0.7,12.2
				c0.5,3.7-2,8.3-6.1,7.9c-3.4-0.7-6.7-1.6-9.9-2.3c-1-0.1-2.1-0.8-2.9-1.6c-1.6-1.6-2.7-3.7-3-5.9c-0.1-1.2-0.1-2.2-0.1-3.3
				C248,485.5,248.2,481.2,248.7,476.9C248.5,476.9,248.7,476.9,248.7,476.9L248.7,476.9z"/>
		</g>
		<g>
			<path class="st0" d="M208.6,465.3c0.1,4.9-0.1,9.9-0.6,14.8c-0.1,1.4,0.1,3.3,0.7,4.8c0.5,1.5,1.5,3,3.2,3.3
				c1.8,0.4,3.7,0.9,5.4,1.2c1.8,0.4,3.6,0.8,5.4,1.2c0.4,0.1,1.6,0,2.2-0.4c2.5-1.2,2.3-4.2,2.4-6.6c0.1-3.7,0.3-7.4,0.7-11h0.1
				c0.4,3.7,0.5,7.4,0.7,11v1.4c0.3,2.6-0.7,5.5-3.2,6.5c-1,0.4-2.1,0.5-3.2,0.3c-1.8-0.5-3.6-1.1-5.3-1.7c-1.8-0.6-3.6-1.2-5.3-1.7
				c-1.8-0.4-3-2-3.7-3.5c-2-3.9-1-8.3-0.7-12.4c0.3-2.4,0.6-4.9,1-7.3C208.4,465.3,208.6,465.3,208.6,465.3L208.6,465.3z"/>
		</g>
		<g>
			<path class="st0" d="M189.7,456.8c0.5,3.1,0.7,6.3,0.5,9.5c-0.1,2.3-0.7,4.8-0.1,7s2.6,3.7,4.4,5c1.2,1,2.6,1.5,4,1.9
				c2.9,1,6,1.7,9.1,2.6v0.1c-1.6,0.1-3.2,0-4.8-0.2c-2.4-0.3-4.8-0.8-7-1.8c-3.7-1.9-6.6-5.6-6.3-9.9c-0.2-3.1-0.6-6.3-0.3-9.5
				C189.2,459.9,189.4,458.4,189.7,456.8L189.7,456.8L189.7,456.8z"/>
		</g>
	</g>
	<path class="st0" d="M434.5,275.8l-78.9-5.9c-9.7-0.7-19,1.8-29.6,9c-4.5-0.9-14.1-3.3-24.9-3.3c-10.3,0-19.1,2-23.8,2.9
		c-7.8-5.9-20.4-9.4-30.1-8.8l-78.9,5.9c-16,1-27.7,15-26.1,30.9l3.6,34.4c1.7,15.9,16.2,27.9,32.1,26.4l49.8-4.5
		c16-1.5,33-15.1,37.8-30.4c0,0,12.7-31.2,12.8-33.1c3.7-8.1,13.4-14.9,22.7-14.9c9.7,0,20,6.8,23.3,15.2c0.1,1.9,12.8,33,12.8,33
		c4.8,15.3,21.9,29,37.8,30.4l49.8,4.5c16,1.5,30.4-10.5,32.1-26.4l3.6-34.4C462.2,290.8,450.5,276.9,434.5,275.8z"/>
	<path class="st0" d="M350.3,332.8c4.5,11,18.6,20.3,31.4,20.7l39.9,1.2c12.8,0.4,23.8-9,24.6-20.8l1.5-25.4
		c0.7-11.8-9.2-21.5-22-21.6l-63.2-0.9c-7.8-0.1-23.3,3.2-23.3,7.9C337.6,312.2,350.3,332.8,350.3,332.8z"/>
	<path class="st0" d="M252.2,331.2c-4.1,11.2-17.8,21-30.6,21.9l-39.9,2.6c-12.8,0.8-24.1-8.1-25.3-19.9l-2.4-25.3
		c-1.1-11.8,8.4-21.9,21.2-22.4l63.1-3.1c7.8-0.4,23.5,2.3,23.6,7.1C264,310.3,252.2,331.2,252.2,331.2z"/>
	<g>
		<path class="st0" d="M190.8,455.9c2.9-2,6.8-2,9.9-0.4c2.2,0.8,3.5,3.1,5.8,3.8c1,0.4,2.1,0.5,3.1,1l-1.5-0.2
			c5.5-1.8,11.4,0.2,16.1,3.1c1.5,1,3,2,4.5,3.1l-1.5-0.3c1.9-0.6,3.8-0.7,5.8-0.8c5.7-0.1,11.5,1.8,16,5.3l-1.2-0.2
			c8.1-1.5,16.4,2.1,21.9,8l-1.1-0.4c6.6-1.2,13.2-1,19.7,0.5c3.8,1,7.5,2.3,10.9,4.4l-0.1,0.3c-2.3-1.1-4.8-2-7.2-2.6
			c-7.3-1.9-15.3-2-22.7-0.4l-0.6,0.1c-1.4-1.5-3-2.8-4.8-3.9c-4.5-2.9-10.1-4.4-15.4-3.3l-0.6,0.1l-0.5-0.4
			c-5.7-4-13.2-5.6-19.9-3.4c-5.1-4.2-12.3-8.5-19.1-6.1l-0.5-0.5c-0.7-0.8-1.3-2-2.3-2.7c-1.6-1.2-3.8-0.8-5.6-1.2
			c-3.1-0.4-5.9-1.2-8.8-2.5C190.9,456.3,190.8,455.9,190.8,455.9L190.8,455.9z"/>
	</g>
	<g>
		<path class="st0" d="M271.4,474.7c2.6-3.7,4.4-8,5.5-12.4c0.7-3.3,1.2-6.7,1.9-10c0.2-1.1,0.4-2.3,0.8-3.4h0.2
			c1.8,7-0.8,14.2-4.2,20.3c-1.2,2-2.5,3.9-4.1,5.6C271.5,474.8,271.4,474.7,271.4,474.7L271.4,474.7z"/>
	</g>
	<g>
		<path class="st0" d="M249,470.2c1.4-2.8,2.6-5.7,3.6-8.7c0.7-3.1,1.5-5.9,2.5-9h0.2c1.3,3.2,0.4,6.7-1.1,9.6c-1.3,2.9-3,5.7-5,8.2
			C249.1,470.3,249,470.2,249,470.2L249,470.2z"/>
	</g>
	<g>
		<path class="st0" d="M226.9,467.4c1.3-2.7,2.5-5.5,3.5-8.3c0.9-2.9,1.8-5.6,3.3-8.3h0.2c0.8,3.1-0.3,6.3-1.9,9
			c-1.4,2.7-3.1,5.3-5,7.7L226.9,467.4L226.9,467.4z"/>
	</g>
	<g>
		<path class="st0" d="M208.1,461.8c1.1-2.5,2-5.1,2.6-7.7c0.4-2.8,0.8-5.1,1.8-7.8h0.2c1.5,2.6,1,5.8-0.3,8.4
			c-1,2.6-2.4,5.1-4.2,7.3C208.3,462,208.1,461.8,208.1,461.8L208.1,461.8z"/>
	</g>
	<path class="st0" d="M391.4,113.6c-6.2,0.6-12.3,2.9-17,7.2c-3.4,3.3-6,7.5-7.3,12.1c-0.8,2.9-1.5,6.1-1.8,9.1
		c-0.4,5.5-0.1,15.1-4.4,18.9c-0.6,0.4-1.2,0.6-1.8,0.8c-2.9,1-5.8,1.8-8.6,2.6c-2.9,0.8-5.8,1.5-8.7,2.3c-1.3,0.4-3.3,0.7-4.5,1.2
		c-4.5,1.8-8.2,4.7-11.8,7.8c-2.3,2-4.5,4.3-6.4,6.9c-1.2,1.6-2.3,3.7-2.7,5.8c-0.2,1.1-0.4,2.1-0.6,3.2c-2,8.8-4.5,17.4-6.4,26.3
		l0.4,0.1c2.5-5.6,4.6-11.2,6.7-16.8c1.4-3.9,2.7-8,3.7-12.1c1.2-3.9,6.4-9.5,11.7-13.6c-0.8,2.1-1,4.3-2,6.4
		c-2.9,5.8-1.4,10.7,3.6,14.5c1,0.9,1.8,1.7,2.4,3.1h0.4c1.2-2.9-1.3-6.1-2.7-8.3c-1.1-1.5-1.8-3-2.2-4.8c-0.6-1.9-0.7-4.1,0.4-5.9
		c0.7-1.2,1.8-2.2,2.7-3.2c1.4-1.7,2.4-3.5,3.3-5.5c0.7-0.4,1.3-0.7,1.9-0.9c3.9-1.2,8-2.6,11.8-4.1c2.8-1.1,5.6-2.3,8.4-3.4
		c0.7-0.3,1.6-0.7,2.2-1.2c1.8-1.6,2.6-4.1,3.1-6.3c1.1-4.4,1.5-9,2.3-13.4c3.8-15.3,9.4-22.4,24.1-28.2
		C391.4,114,391.4,113.6,391.4,113.6z"/>
</g>
</svg>
